<?xml version="1.0" encoding="utf-8"?>
<!-- Generator: Adobe Illustrator 28.1.0, SVG Export Plug-In . SVG Version: 6.00 Build 0)  -->
<svg version="1.1" id="Capa_1" xmlns="http://www.w3.org/2000/svg" xmlns:xlink="http://www.w3.org/1999/xlink" x="0px" y="0px"
	 viewBox="0 0 364.5 116.2" style="enable-background:new 0 0 364.5 116.2;" xml:space="preserve">
<style type="text/css">
	.st0{fill:#009FE3;}
</style>
<g>
	<g>
		<path d="M113.3,85.6h2.7v15.5h-2.7V85.6z"/>
		<path d="M127.3,85.6h12.5V88h-4.9v13.1h-2.7V88h-4.9V85.6z"/>
		<path d="M168.5,95.9c0,0.6,0.1,1.1,0.3,1.5c0.2,0.4,0.5,0.8,0.8,1s0.8,0.5,1.2,0.6c0.5,0.1,1,0.2,1.5,0.2c0.6,0,1.1-0.1,1.5-0.2
			c0.4-0.1,0.8-0.3,1-0.5c0.3-0.2,0.4-0.5,0.6-0.7c0.1-0.3,0.2-0.6,0.2-0.9c0-0.6-0.1-1-0.4-1.3c-0.3-0.3-0.6-0.5-0.9-0.6
			c-0.5-0.2-1.2-0.4-1.9-0.6c-0.7-0.2-1.6-0.4-2.7-0.7c-0.7-0.2-1.2-0.4-1.7-0.7c-0.4-0.3-0.8-0.6-1.1-0.9c-0.3-0.3-0.4-0.7-0.6-1.1
			c-0.1-0.4-0.2-0.8-0.2-1.2c0-0.8,0.2-1.5,0.5-2c0.3-0.6,0.8-1,1.3-1.4c0.5-0.4,1.1-0.7,1.8-0.8c0.7-0.2,1.4-0.3,2.1-0.3
			c0.8,0,1.6,0.1,2.3,0.3c0.7,0.2,1.3,0.5,1.9,0.9c0.5,0.4,1,0.9,1.3,1.5c0.3,0.6,0.5,1.3,0.5,2.1h-2.7c-0.1-1-0.4-1.7-1-2.1
			c-0.6-0.4-1.4-0.6-2.3-0.6c-0.3,0-0.6,0-1,0.1c-0.3,0.1-0.6,0.2-0.9,0.3c-0.3,0.2-0.5,0.4-0.7,0.6c-0.2,0.3-0.3,0.6-0.3,1
			c0,0.5,0.2,1,0.5,1.3c0.3,0.3,0.8,0.5,1.3,0.7c0.1,0,0.3,0.1,0.7,0.2c0.4,0.1,0.8,0.2,1.3,0.4c0.5,0.1,1,0.3,1.4,0.4
			c0.5,0.1,0.8,0.2,1,0.3c0.5,0.2,0.9,0.4,1.3,0.6c0.4,0.3,0.7,0.6,0.9,0.9c0.3,0.4,0.4,0.7,0.6,1.1c0.1,0.4,0.2,0.8,0.2,1.2
			c0,0.9-0.2,1.6-0.5,2.2c-0.4,0.6-0.8,1.1-1.4,1.5c-0.6,0.4-1.2,0.7-2,0.9c-0.7,0.2-1.5,0.3-2.3,0.3c-0.9,0-1.7-0.1-2.5-0.3
			c-0.8-0.2-1.5-0.5-2-1c-0.6-0.4-1-1-1.4-1.7c-0.3-0.7-0.5-1.5-0.5-2.5H168.5z"/>
		<path d="M195,101.4c-0.9,0-1.7-0.1-2.4-0.4c-0.7-0.3-1.3-0.7-1.8-1.2c-0.5-0.5-0.9-1.1-1.1-1.9c-0.3-0.7-0.4-1.5-0.4-2.4
			c0-0.9,0.1-1.6,0.4-2.4c0.3-0.7,0.6-1.3,1.1-1.9c0.5-0.5,1.1-0.9,1.8-1.2c0.7-0.3,1.5-0.4,2.4-0.4c0.9,0,1.7,0.1,2.4,0.4
			s1.3,0.7,1.8,1.2c0.5,0.5,0.9,1.1,1.1,1.9c0.3,0.7,0.4,1.5,0.4,2.4c0,0.9-0.1,1.7-0.4,2.4c-0.3,0.7-0.6,1.3-1.1,1.9
			c-0.5,0.5-1.1,0.9-1.8,1.2C196.7,101.3,195.9,101.4,195,101.4z M195,99.5c0.5,0,1-0.1,1.4-0.3c0.4-0.2,0.7-0.5,1-0.9
			c0.3-0.4,0.5-0.8,0.6-1.3c0.1-0.5,0.2-0.9,0.2-1.4c0-0.5-0.1-1-0.2-1.4c-0.1-0.5-0.3-0.9-0.6-1.3s-0.6-0.7-1-0.9
			c-0.4-0.2-0.9-0.3-1.4-0.3c-0.5,0-1,0.1-1.4,0.3c-0.4,0.2-0.7,0.5-1,0.9s-0.5,0.8-0.6,1.3c-0.1,0.5-0.2,1-0.2,1.4
			c0,0.5,0.1,1,0.2,1.4c0.1,0.5,0.3,0.9,0.6,1.3c0.3,0.4,0.6,0.7,1,0.9C194,99.3,194.5,99.5,195,99.5z"/>
		<path d="M212.3,85.6h2.5v15.5h-2.5V85.6z"/>
		<path d="M236.8,101.1h-2.4v-1.6h0c-0.3,0.6-0.8,1-1.4,1.4c-0.6,0.3-1.2,0.5-1.8,0.5c-1.5,0-2.5-0.4-3.2-1.1c-0.7-0.7-1-1.8-1-3.3
			v-7.1h2.5v6.9c0,1,0.2,1.7,0.6,2.1c0.4,0.4,0.9,0.6,1.6,0.6c0.5,0,1-0.1,1.3-0.2c0.3-0.2,0.6-0.4,0.8-0.6c0.2-0.3,0.4-0.6,0.5-1
			c0.1-0.4,0.1-0.8,0.1-1.2v-6.5h2.5V101.1z"/>
		<path d="M247.8,89.9h1.9v-3.4h2.5v3.4h2.2v1.8h-2.2v6c0,0.3,0,0.5,0,0.7c0,0.2,0.1,0.3,0.2,0.5c0.1,0.1,0.2,0.2,0.4,0.3
			s0.4,0.1,0.7,0.1c0.2,0,0.3,0,0.5,0c0.2,0,0.3,0,0.5-0.1v1.9c-0.3,0-0.5,0.1-0.8,0.1c-0.3,0-0.5,0-0.8,0c-0.7,0-1.2-0.1-1.6-0.2
			c-0.4-0.1-0.7-0.3-0.9-0.5c-0.2-0.2-0.4-0.5-0.5-0.9c-0.1-0.4-0.1-0.8-0.1-1.2v-6.6h-1.9V89.9z"/>
		<path d="M265.7,85.6h2.5V88h-2.5V85.6z M265.7,89.9h2.5v11.2h-2.5V89.9z"/>
		<path d="M285.5,101.4c-0.9,0-1.7-0.1-2.4-0.4c-0.7-0.3-1.3-0.7-1.8-1.2c-0.5-0.5-0.9-1.1-1.1-1.9c-0.3-0.7-0.4-1.5-0.4-2.4
			c0-0.9,0.1-1.6,0.4-2.4c0.3-0.7,0.6-1.3,1.1-1.9c0.5-0.5,1.1-0.9,1.8-1.2c0.7-0.3,1.5-0.4,2.4-0.4c0.9,0,1.7,0.1,2.4,0.4
			s1.3,0.7,1.8,1.2c0.5,0.5,0.9,1.1,1.1,1.9c0.3,0.7,0.4,1.5,0.4,2.4c0,0.9-0.1,1.7-0.4,2.4c-0.3,0.7-0.6,1.3-1.1,1.9
			c-0.5,0.5-1.1,0.9-1.8,1.2C287.2,101.3,286.4,101.4,285.5,101.4z M285.5,99.5c0.5,0,1-0.1,1.4-0.3c0.4-0.2,0.7-0.5,1-0.9
			c0.3-0.4,0.5-0.8,0.6-1.3c0.1-0.5,0.2-0.9,0.2-1.4c0-0.5-0.1-1-0.2-1.4c-0.1-0.5-0.3-0.9-0.6-1.3s-0.6-0.7-1-0.9
			c-0.4-0.2-0.9-0.3-1.4-0.3c-0.5,0-1,0.1-1.4,0.3c-0.4,0.2-0.7,0.5-1,0.9s-0.5,0.8-0.6,1.3c-0.1,0.5-0.2,1-0.2,1.4
			c0,0.5,0.1,1,0.2,1.4c0.1,0.5,0.3,0.9,0.6,1.3c0.3,0.4,0.6,0.7,1,0.9C284.5,99.3,285,99.5,285.5,99.5z"/>
		<path d="M302.7,89.9h2.3v1.6l0,0c0.4-0.6,0.9-1.1,1.5-1.5c0.6-0.4,1.3-0.5,2-0.5c1.2,0,2.2,0.3,2.9,1c0.7,0.6,1.1,1.6,1.1,2.9v7.7
			h-2.5v-7c0-0.9-0.2-1.5-0.6-1.9c-0.3-0.4-0.9-0.6-1.6-0.6c-0.4,0-0.8,0.1-1.1,0.2c-0.3,0.2-0.6,0.4-0.8,0.6
			c-0.2,0.3-0.4,0.6-0.5,0.9c-0.1,0.4-0.2,0.7-0.2,1.1v6.6h-2.5V89.9z"/>
		<path d="M326.5,97.5c0.1,0.7,0.3,1.2,0.8,1.5c0.5,0.3,1,0.4,1.7,0.4c0.2,0,0.5,0,0.8-0.1c0.3,0,0.6-0.1,0.8-0.2
			c0.3-0.1,0.5-0.2,0.6-0.4s0.2-0.5,0.2-0.8c0-0.3-0.1-0.6-0.3-0.8c-0.2-0.2-0.5-0.4-0.8-0.5c-0.3-0.1-0.7-0.2-1.2-0.3
			c-0.4-0.1-0.9-0.2-1.3-0.3c-0.5-0.1-0.9-0.2-1.3-0.4c-0.4-0.1-0.8-0.3-1.1-0.6s-0.6-0.6-0.8-0.9c-0.2-0.4-0.3-0.9-0.3-1.4
			c0-0.6,0.1-1.1,0.4-1.5c0.3-0.4,0.7-0.7,1.1-1c0.5-0.3,1-0.4,1.5-0.5c0.6-0.1,1.1-0.2,1.6-0.2c0.6,0,1.1,0.1,1.7,0.2
			c0.5,0.1,1,0.3,1.4,0.6c0.4,0.3,0.8,0.6,1.1,1.1c0.3,0.4,0.5,1,0.5,1.6h-2.6c-0.1-0.6-0.4-1-0.8-1.2s-0.9-0.3-1.5-0.3
			c-0.2,0-0.4,0-0.6,0c-0.2,0-0.5,0.1-0.7,0.2c-0.2,0.1-0.4,0.2-0.5,0.3c-0.1,0.2-0.2,0.4-0.2,0.6c0,0.3,0.1,0.5,0.3,0.7
			c0.2,0.2,0.5,0.3,0.8,0.5c0.3,0.1,0.7,0.2,1.2,0.3c0.4,0.1,0.9,0.2,1.3,0.3c0.4,0.1,0.9,0.2,1.3,0.4c0.4,0.1,0.8,0.3,1.2,0.6
			c0.3,0.2,0.6,0.6,0.8,0.9c0.2,0.4,0.3,0.8,0.3,1.4c0,0.7-0.2,1.2-0.5,1.7c-0.3,0.5-0.7,0.8-1.2,1.1c-0.5,0.3-1,0.5-1.6,0.6
			c-0.6,0.1-1.2,0.2-1.8,0.2c-0.7,0-1.4-0.1-2-0.2c-0.6-0.2-1.1-0.4-1.6-0.7c-0.4-0.3-0.8-0.7-1-1.2c-0.3-0.5-0.4-1.1-0.4-1.7H326.5
			z"/>
	</g>
	<path d="M349.6,23.7c0.5,0,1,0.1,1.4,0.2c0.4,0.2,0.8,0.4,1.1,0.7c0.3,0.3,0.5,0.6,0.7,1c0.2,0.4,0.2,0.8,0.2,1.2
		c0,0.7-0.1,1.2-0.4,1.7c-0.3,0.5-0.7,0.9-1.4,1.1v0c0.3,0.1,0.6,0.2,0.8,0.4c0.2,0.2,0.4,0.4,0.5,0.6c0.1,0.2,0.2,0.5,0.3,0.8
		c0.1,0.3,0.1,0.6,0.1,0.9c0,0.2,0,0.4,0,0.6c0,0.2,0,0.5,0.1,0.8c0,0.3,0.1,0.5,0.1,0.7c0.1,0.2,0.1,0.4,0.3,0.6h-2.5
		c-0.1-0.4-0.2-0.8-0.3-1.3c0-0.5-0.1-1-0.1-1.4c-0.1-0.6-0.3-1-0.5-1.3s-0.7-0.4-1.4-0.4H346v4.4h-2.5V23.7H349.6z M348.7,28.8
		c0.6,0,1-0.1,1.3-0.4c0.3-0.3,0.4-0.7,0.4-1.2c0-0.6-0.1-1-0.4-1.2c-0.3-0.3-0.7-0.4-1.3-0.4H346v3.2H348.7z"/>
	<g>
		<path d="M347.8,38.9c-5.3,0-9.6-4.3-9.6-9.6s4.3-9.6,9.6-9.6s9.6,4.3,9.6,9.6S353.1,38.9,347.8,38.9z M347.8,20.8
			c-4.7,0-8.6,3.8-8.6,8.6s3.8,8.6,8.6,8.6s8.6-3.8,8.6-8.6S352.5,20.8,347.8,20.8z"/>
		<path d="M347.8,39.4c-5.6,0-10.1-4.5-10.1-10.1c0-5.6,4.5-10.1,10.1-10.1c5.6,0,10.1,4.5,10.1,10.1
			C357.9,34.9,353.4,39.4,347.8,39.4z M347.8,21.3c-4.4,0-8,3.6-8,8c0,4.4,3.6,8,8,8s8-3.6,8-8C355.9,24.9,352.2,21.3,347.8,21.3z"
			/>
	</g>
	<g>
		<path d="M136.3,30.8h-11.3v43.1h-10.4V30.8h-11.3v-8.5h32.9V30.8z"/>
		<path d="M143.7,59.1c0,1.2,0.1,2.3,0.3,3.4c0.2,1.1,0.4,2,0.8,2.9c0.4,0.8,0.9,1.5,1.5,2c0.6,0.5,1.4,0.8,2.3,0.8
			c1.7,0,2.9-0.6,3.7-1.8c0.8-1.2,1.3-3,1.6-5.5h9c-0.2,4.5-1.4,8-3.6,10.3c-2.2,2.4-5.7,3.5-10.5,3.5c-3.6,0-6.4-0.6-8.5-1.8
			c-2-1.2-3.5-2.8-4.5-4.8c-1-2-1.6-4.2-1.8-6.6c-0.2-2.5-0.3-4.9-0.3-7.4c0-2.6,0.2-5.1,0.5-7.5c0.4-2.4,1.1-4.6,2.2-6.4
			c1.1-1.9,2.6-3.4,4.7-4.5c2-1.1,4.7-1.7,8.1-1.7c2.9,0,5.3,0.5,7.1,1.4c1.9,0.9,3.3,2.3,4.4,4c1.1,1.7,1.8,3.8,2.2,6.2
			c0.4,2.4,0.6,5.1,0.6,8.1V56h-19.7V59.1z M153.6,46.1c-0.1-1.1-0.4-2.1-0.8-2.9c-0.4-0.8-0.9-1.4-1.5-1.8
			c-0.7-0.4-1.5-0.6-2.5-0.6c-1,0-1.8,0.2-2.5,0.7c-0.7,0.5-1.2,1.1-1.6,1.8c-0.4,0.7-0.7,1.6-0.8,2.5c-0.2,0.9-0.3,1.8-0.3,2.7V50
			h10.2C153.8,48.5,153.7,47.2,153.6,46.1z"/>
		<path d="M187.2,46.2c-0.1-0.9-0.3-1.7-0.7-2.5c-0.3-0.7-0.8-1.3-1.3-1.8c-0.6-0.5-1.3-0.7-2.3-0.7c-1.2,0-2.2,0.3-3,0.8
			c-0.8,0.6-1.3,1.4-1.7,2.5c-0.4,1.1-0.7,2.5-0.8,4.1c-0.1,1.7-0.2,3.6-0.2,5.9c0,2.4,0.1,4.5,0.2,6.2c0.1,1.7,0.4,3.1,0.8,4.2
			c0.4,1.1,0.9,1.9,1.6,2.4c0.7,0.5,1.6,0.8,2.7,0.8c1.7,0,2.9-0.7,3.7-2.2c0.8-1.4,1.2-3.8,1.2-6.9h9.5c0,5.1-1.1,9-3.4,11.7
			c-2.3,2.7-6.1,4-11.4,4c-2.5,0-4.7-0.3-6.5-0.9c-1.9-0.6-3.4-1.7-4.6-3.3s-2.2-3.7-2.8-6.3c-0.6-2.6-0.9-5.9-0.9-9.8
			c0-4,0.4-7.3,1.2-9.9s1.9-4.7,3.3-6.3c1.4-1.6,3.1-2.7,5-3.3c1.9-0.6,4-0.9,6.4-0.9c4.6,0,8.1,1.3,10.4,4s3.5,6.4,3.5,11h-9.5
			C187.3,48.1,187.3,47.1,187.2,46.2z"/>
		<path d="M211.6,35v4.6h0.1c1.1-1.9,2.4-3.3,4.1-4.2c1.7-0.9,3.6-1.3,5.8-1.3c3.2,0,5.6,0.9,7.3,2.6c1.7,1.7,2.6,4.6,2.6,8.5v28.8
			h-10V47.1c0-2-0.3-3.4-1-4.2c-0.7-0.8-1.8-1.2-3.3-1.2c-3.5,0-5.3,2.1-5.3,6.4v25.8h-10V35H211.6z"/>
		<path d="M237.7,45.6c0.5-2.6,1.4-4.7,2.6-6.4c1.2-1.7,2.8-3,4.7-3.9c2-0.9,4.3-1.3,7.2-1.3c3,0,5.5,0.4,7.4,1.2
			c2,0.8,3.5,2.1,4.7,3.9c1.2,1.7,2,3.9,2.5,6.4c0.5,2.6,0.7,5.5,0.7,9c0,3.3-0.3,6.3-0.8,8.8c-0.5,2.6-1.4,4.7-2.6,6.4
			c-1.2,1.7-2.8,3-4.7,3.8c-2,0.8-4.3,1.2-7.2,1.2c-3,0-5.5-0.3-7.4-1.1c-2-0.8-3.5-2-4.7-3.8c-1.2-1.7-2-3.9-2.5-6.4
			c-0.5-2.6-0.7-5.6-0.7-8.9C236.9,51.1,237.2,48.2,237.7,45.6z M247,59.9c0.1,1.7,0.3,3.1,0.7,4.3c0.4,1.2,0.9,2.1,1.6,2.8
			c0.7,0.7,1.7,1,2.9,1c2,0,3.4-1.1,4.2-3.2c0.8-2.1,1.2-5.6,1.2-10.5c0-4.9-0.4-8.4-1.2-10.5c-0.8-2.1-2.2-3.2-4.2-3.2
			c-1.2,0-2.2,0.3-2.9,1c-0.7,0.7-1.3,1.6-1.6,2.8c-0.4,1.2-0.6,2.6-0.7,4.3c-0.1,1.7-0.1,3.5-0.1,5.5
			C246.9,56.4,246.9,58.3,247,59.9z"/>
		<path d="M301.3,35l-9.8,38.9h-11.6l-10-38.9h10.4l5.6,27.8h0.1l5.3-27.8H301.3z"/>
		<path d="M304.9,46c0-2.3,0.4-4.2,1.1-5.7c0.7-1.5,1.7-2.7,2.9-3.7c1.2-0.9,2.7-1.6,4.3-2c1.7-0.4,3.4-0.6,5.3-0.6
			c3,0,5.4,0.3,7.2,0.9c1.8,0.6,3.3,1.4,4.3,2.5c1,1.1,1.7,2.3,2.1,3.8c0.4,1.5,0.5,3.1,0.5,4.8v20.4c0,1.8,0.1,3.3,0.3,4.3
			c0.2,1,0.5,2.1,1,3.3h-9.5c-0.3-0.6-0.6-1.3-0.8-2c-0.2-0.7-0.3-1.4-0.5-2.1h-0.1c-1.2,2-2.5,3.3-4,3.9s-3.5,0.9-5.9,0.9
			c-1.7,0-3.2-0.3-4.4-0.9c-1.2-0.6-2.2-1.4-2.9-2.5c-0.7-1.1-1.3-2.3-1.6-3.6c-0.3-1.3-0.5-2.6-0.5-3.9c0-1.8,0.2-3.4,0.6-4.7
			c0.4-1.3,1-2.5,1.8-3.4c0.8-0.9,1.8-1.7,3-2.3c1.2-0.6,2.7-1.2,4.4-1.7l5.6-1.5c1.5-0.4,2.5-0.9,3.1-1.6c0.6-0.7,0.9-1.7,0.9-3
			c0-1.5-0.4-2.7-1-3.5c-0.7-0.8-1.9-1.3-3.6-1.3c-1.5,0-2.7,0.5-3.5,1.4c-0.8,0.9-1.2,2.1-1.2,3.7v1.1h-9V46z M320.9,55.7
			c-0.8,0.3-1.5,0.5-2.1,0.7c-2,0.4-3.5,1.2-4.3,2.2c-0.9,1-1.3,2.4-1.3,4.1c0,1.5,0.3,2.8,0.9,3.8c0.6,1.1,1.5,1.6,2.9,1.6
			c0.7,0,1.4-0.1,2.1-0.3c0.7-0.2,1.4-0.6,2-1c0.6-0.5,1.1-1.1,1.5-1.9c0.4-0.8,0.6-1.7,0.6-2.7v-7.7
			C322.4,55,321.7,55.4,320.9,55.7z"/>
	</g>
	<path class="st0" d="M19.9,111.7l34.3-10.9l5.6-42.1c0,0-9.3-3.5-20,1.8c-8.2,4.1-13.5,13.4-13.5,13.4L19.9,111.7z"/>
	<path class="st0" d="M11.3,29.2L6.6,60.1l23.6-9.4v8c0,0,29.2-34,56.8-21.1l6.4-33L11.3,29.2z"/>
</g>
</svg>
